<?xml version="1.0" standalone="no"?>
<!DOCTYPE svg PUBLIC "-//W3C//DTD SVG 1.1//EN" 
  "http://www.w3.org/Graphics/SVG/1.1/DTD/svg11.dtd">
<svg width="400" height="300" viewBox="0 0 400 300"
     xmlns="http://www.w3.org/2000/svg" version="1.1">
<desc>untitled.blend, (Blender 3.1.2)</desc>
<polygon stroke="black" stroke-width="1" fill="rgb(204, 204, 204)" fill-opacity="0.25" points="221.410,68.378 174.334,70.304 213.469,101.325 " />
<polygon stroke="black" stroke-width="1" fill="rgb(204, 204, 204)" fill-opacity="0.25" points="283.890,68.090 259.564,44.157 247.935,68.865 " />
<polygon stroke="black" stroke-width="1" fill="rgb(204, 204, 204)" fill-opacity="0.25" points="259.564,44.157 152.672,34.376 221.410,68.378 " />
<polygon stroke="black" stroke-width="1" fill="rgb(204, 204, 204)" fill-opacity="0.25" points="174.334,70.304 120.094,70.057 130.496,103.092 " />
<polygon stroke="black" stroke-width="1" fill="rgb(204, 204, 204)" fill-opacity="0.25" points="152.672,34.376 92.651,65.142 120.094,70.057 " />
<polygon stroke="black" stroke-width="1" fill="rgb(204, 204, 204)" fill-opacity="0.25" points="238.040,104.027 213.469,101.325 232.337,131.136 " />
<polygon stroke="black" stroke-width="1" fill="rgb(204, 204, 204)" fill-opacity="0.25" points="251.107,102.458 247.935,68.865 238.040,104.027 " />
<polygon stroke="black" stroke-width="1" fill="rgb(204, 204, 204)" fill-opacity="0.25" points="263.186,89.237 247.935,68.865 251.107,102.458 " />
<polygon stroke="black" stroke-width="1" fill="rgb(204, 204, 204)" fill-opacity="0.25" points="279.507,96.333 283.890,68.090 263.186,89.237 " />
<polygon stroke="black" stroke-width="1" fill="rgb(204, 204, 204)" fill-opacity="0.25" points="306.603,80.198 319.360,56.732 283.890,68.090 " />
<polygon stroke="black" stroke-width="1" fill="rgb(204, 204, 204)" fill-opacity="0.25" points="42.482,74.707 79.678,95.155 37.437,49.207 " />
<polygon stroke="black" stroke-width="1" fill="rgb(204, 204, 204)" fill-opacity="0.25" points="120.094,70.057 101.914,119.134 118.468,139.068 " />
<polygon stroke="black" stroke-width="1" fill="rgb(204, 204, 204)" fill-opacity="0.25" points="174.334,70.304 143.230,136.823 213.469,101.325 " />
<polygon stroke="black" stroke-width="1" fill="rgb(204, 204, 204)" fill-opacity="0.25" points="108.372,174.514 99.742,172.953 102.496,182.896 " />
<polygon stroke="black" stroke-width="1" fill="rgb(204, 204, 204)" fill-opacity="0.25" points="117.784,162.139 111.452,152.472 106.772,165.230 " />
<polygon stroke="black" stroke-width="1" fill="rgb(204, 204, 204)" fill-opacity="0.25" points="106.772,165.230 99.742,172.953 108.372,174.514 " />
<polygon stroke="black" stroke-width="1" fill="rgb(204, 204, 204)" fill-opacity="0.25" points="102.496,182.896 99.742,172.953 91.656,183.894 " />
<polygon stroke="black" stroke-width="1" fill="rgb(204, 204, 204)" fill-opacity="0.25" points="91.656,183.894 90.384,165.502 80.246,179.926 " />
<polygon stroke="black" stroke-width="1" fill="rgb(204, 204, 204)" fill-opacity="0.25" points="103.377,152.342 98.865,162.820 106.772,165.230 " />
<polygon stroke="black" stroke-width="1" fill="rgb(204, 204, 204)" fill-opacity="0.25" points="140.262,214.750 104.198,209.388 172.146,243.612 " />
<polygon stroke="black" stroke-width="1" fill="rgb(204, 204, 204)" fill-opacity="0.25" points="119.578,178.195 108.372,174.514 140.262,214.750 " />
<polygon stroke="black" stroke-width="1" fill="rgb(204, 204, 204)" fill-opacity="0.25" points="119.578,178.195 117.784,162.139 108.372,174.514 " />
<polygon stroke="black" stroke-width="1" fill="rgb(204, 204, 204)" fill-opacity="0.25" points="111.452,152.472 103.377,152.342 106.772,165.230 " />
<polygon stroke="black" stroke-width="1" fill="rgb(204, 204, 204)" fill-opacity="0.25" points="101.914,119.134 90.426,139.208 103.377,152.342 " />
<polygon stroke="black" stroke-width="1" fill="rgb(204, 204, 204)" fill-opacity="0.25" points="90.426,139.208 72.733,151.436 90.384,165.502 " />
<polygon stroke="black" stroke-width="1" fill="rgb(204, 204, 204)" fill-opacity="0.25" points="90.426,139.208 90.384,165.502 98.865,162.820 " />
<polygon stroke="black" stroke-width="1" fill="rgb(204, 204, 204)" fill-opacity="0.25" points="80.246,179.926 72.733,151.436 52.335,162.886 " />
<polygon stroke="black" stroke-width="1" fill="rgb(204, 204, 204)" fill-opacity="0.25" points="80.246,179.926 52.335,162.886 61.842,195.941 " />
<polygon stroke="black" stroke-width="1" fill="rgb(204, 204, 204)" fill-opacity="0.25" points="91.417,198.478 61.842,195.941 71.698,236.053 " />
<polygon stroke="black" stroke-width="1" fill="rgb(204, 204, 204)" fill-opacity="0.25" points="104.198,209.388 71.698,236.053 172.146,243.612 " />
<polygon stroke="black" stroke-width="1" fill="rgb(204, 204, 204)" fill-opacity="0.25" points="44.829,127.124 3.528,101.044 8.903,130.256 " />
<polygon stroke="black" stroke-width="1" fill="rgb(204, 204, 204)" fill-opacity="0.25" points="335.180,130.256 329.805,101.044 305.051,127.773 " />
<polygon stroke="black" stroke-width="1" fill="rgb(204, 204, 204)" fill-opacity="0.25" points="329.805,101.044 300.247,100.366 305.051,127.773 " />
<polygon stroke="black" stroke-width="1" fill="rgb(204, 204, 204)" fill-opacity="0.25" points="388.119,195.941 345.885,166.627 321.675,196.559 " />
<polygon stroke="black" stroke-width="1" fill="rgb(204, 204, 204)" fill-opacity="0.25" points="72.733,151.436 44.829,127.124 52.335,162.886 " />
<polygon stroke="black" stroke-width="1" fill="rgb(204, 204, 204)" fill-opacity="0.25" points="79.678,95.155 42.482,74.707 72.801,114.621 " />
<polygon stroke="black" stroke-width="1" fill="rgb(204, 204, 204)" fill-opacity="0.25" points="42.482,74.707 13.409,82.034 42.055,97.614 " />
<polygon stroke="black" stroke-width="1" fill="rgb(204, 204, 204)" fill-opacity="0.25" points="339.686,82.034 306.603,80.198 329.805,101.044 " />
<polygon stroke="black" stroke-width="1" fill="rgb(204, 204, 204)" fill-opacity="0.25" points="339.686,82.034 319.360,56.732 306.603,80.198 " />
<polygon stroke="black" stroke-width="1" fill="rgb(204, 204, 204)" fill-opacity="0.25" points="329.805,101.044 306.603,80.198 300.247,100.366 " />
<polygon stroke="black" stroke-width="1" fill="rgb(204, 204, 204)" fill-opacity="0.25" points="305.051,127.773 300.247,100.366 276.381,132.930 " />
<polygon stroke="black" stroke-width="1" fill="rgb(204, 204, 204)" fill-opacity="0.25" points="321.675,196.559 313.526,156.931 289.065,177.086 " />
<polygon stroke="black" stroke-width="1" fill="rgb(204, 204, 204)" fill-opacity="0.25" points="345.885,166.627 313.526,156.931 321.675,196.559 " />
<polygon stroke="black" stroke-width="1" fill="rgb(204, 204, 204)" fill-opacity="0.25" points="258.616,192.762 231.145,216.281 262.701,212.944 " />
<polygon stroke="black" stroke-width="1" fill="rgb(204, 204, 204)" fill-opacity="0.25" points="289.065,177.086 282.734,212.008 321.675,196.559 " />
<polygon stroke="black" stroke-width="1" fill="rgb(204, 204, 204)" fill-opacity="0.25" points="228.342,173.056 226.515,192.501 247.267,170.649 " />
<polygon stroke="black" stroke-width="1" fill="rgb(204, 204, 204)" fill-opacity="0.25" points="214.243,187.527 200.645,197.095 212.313,211.323 " />
<polygon stroke="black" stroke-width="1" fill="rgb(204, 204, 204)" fill-opacity="0.25" points="189.993,155.587 214.243,187.527 228.342,173.056 " />
<polygon stroke="black" stroke-width="1" fill="rgb(204, 204, 204)" fill-opacity="0.25" points="189.993,155.587 200.645,197.095 214.243,187.527 " />
<polygon stroke="black" stroke-width="1" fill="rgb(204, 204, 204)" fill-opacity="0.25" points="232.337,131.136 228.342,173.056 241.513,153.808 " />
<polygon stroke="black" stroke-width="1" fill="rgb(204, 204, 204)" fill-opacity="0.25" points="213.469,101.325 189.993,155.587 232.337,131.136 " />
<polygon stroke="black" stroke-width="1" fill="rgb(204, 204, 204)" fill-opacity="0.25" points="189.993,155.587 167.703,189.795 200.645,197.095 " />
<polygon stroke="black" stroke-width="1" fill="rgb(204, 204, 204)" fill-opacity="0.25" points="143.230,136.823 117.784,162.139 167.703,189.795 " />
<polygon stroke="black" stroke-width="1" fill="rgb(204, 204, 204)" fill-opacity="0.25" points="167.703,189.795 140.262,214.750 200.645,197.095 " />
<polygon stroke="black" stroke-width="1" fill="rgb(204, 204, 204)" fill-opacity="0.25" points="118.468,139.068 101.914,119.134 103.377,152.342 " />
<polygon stroke="black" stroke-width="1" fill="rgb(204, 204, 204)" fill-opacity="0.25" points="118.468,139.068 103.377,152.342 111.452,152.472 " />
<polygon stroke="black" stroke-width="1" fill="rgb(204, 204, 204)" fill-opacity="0.25" points="212.313,211.323 172.146,243.612 231.145,216.281 " />
<polygon stroke="black" stroke-width="1" fill="rgb(204, 204, 204)" fill-opacity="0.25" points="226.515,192.501 212.313,211.323 231.145,216.281 " />
<polygon stroke="black" stroke-width="1" fill="rgb(204, 204, 204)" fill-opacity="0.25" points="251.319,185.100 226.515,192.501 231.145,216.281 " />
<polygon stroke="black" stroke-width="1" fill="rgb(204, 204, 204)" fill-opacity="0.25" points="264.628,165.764 254.762,151.606 255.173,169.482 " />
<polygon stroke="black" stroke-width="1" fill="rgb(204, 204, 204)" fill-opacity="0.25" points="254.762,151.606 247.668,139.862 241.513,153.808 " />
<polygon stroke="black" stroke-width="1" fill="rgb(204, 204, 204)" fill-opacity="0.25" points="247.668,139.862 238.040,104.027 241.513,153.808 " />
<polygon stroke="black" stroke-width="1" fill="rgb(204, 204, 204)" fill-opacity="0.25" points="287.018,154.314 276.381,132.930 264.628,165.764 " />
<polygon stroke="black" stroke-width="1" fill="rgb(204, 204, 204)" fill-opacity="0.25" points="276.381,132.930 258.572,129.810 254.762,151.606 " />
<polygon stroke="black" stroke-width="1" fill="rgb(204, 204, 204)" fill-opacity="0.25" points="279.507,96.333 263.186,89.237 258.572,129.810 " />
<polygon stroke="black" stroke-width="1" fill="rgb(204, 204, 204)" fill-opacity="0.25" points="238.040,104.027 232.337,131.136 241.513,153.808 " />
<polygon stroke="black" stroke-width="1" fill="rgb(204, 204, 204)" fill-opacity="0.25" points="221.410,68.378 152.672,34.376 174.334,70.304 " />
<polygon stroke="black" stroke-width="1" fill="rgb(204, 204, 204)" fill-opacity="0.25" points="259.564,44.157 363.714,49.207 152.672,34.376 " />
<polygon stroke="black" stroke-width="1" fill="rgb(204, 204, 204)" fill-opacity="0.25" points="152.672,34.376 120.094,70.057 174.334,70.304 " />
<polygon stroke="black" stroke-width="1" fill="rgb(204, 204, 204)" fill-opacity="0.25" points="174.334,70.304 130.496,103.092 143.230,136.823 " />
<polygon stroke="black" stroke-width="1" fill="rgb(204, 204, 204)" fill-opacity="0.25" points="152.672,34.376 37.437,49.207 92.651,65.142 " />
<polygon stroke="black" stroke-width="1" fill="rgb(204, 204, 204)" fill-opacity="0.25" points="238.040,104.027 221.410,68.378 213.469,101.325 " />
<polygon stroke="black" stroke-width="1" fill="rgb(204, 204, 204)" fill-opacity="0.25" points="247.935,68.865 259.564,44.157 221.410,68.378 " />
<polygon stroke="black" stroke-width="1" fill="rgb(204, 204, 204)" fill-opacity="0.25" points="279.507,96.333 306.603,80.198 283.890,68.090 " />
<polygon stroke="black" stroke-width="1" fill="rgb(204, 204, 204)" fill-opacity="0.25" points="283.890,68.090 319.360,56.732 259.564,44.157 " />
<polygon stroke="black" stroke-width="1" fill="rgb(204, 204, 204)" fill-opacity="0.25" points="319.360,56.732 368.759,74.707 363.714,49.207 " />
<polygon stroke="black" stroke-width="1" fill="rgb(204, 204, 204)" fill-opacity="0.25" points="319.360,56.732 363.714,49.207 259.564,44.157 " />
<polygon stroke="black" stroke-width="1" fill="rgb(204, 204, 204)" fill-opacity="0.25" points="92.651,65.142 37.437,49.207 79.678,95.155 " />
<polygon stroke="black" stroke-width="1" fill="rgb(204, 204, 204)" fill-opacity="0.25" points="101.914,119.134 120.094,70.057 92.651,65.142 " />
<polygon stroke="black" stroke-width="1" fill="rgb(204, 204, 204)" fill-opacity="0.25" points="130.496,103.092 120.094,70.057 118.468,139.068 " />
<polygon stroke="black" stroke-width="1" fill="rgb(204, 204, 204)" fill-opacity="0.25" points="130.496,103.092 118.468,139.068 143.230,136.823 " />
<polygon stroke="black" stroke-width="1" fill="rgb(204, 204, 204)" fill-opacity="0.25" points="213.469,101.325 143.230,136.823 189.993,155.587 " />
<polygon stroke="black" stroke-width="1" fill="rgb(204, 204, 204)" fill-opacity="0.25" points="91.656,183.894 91.417,198.478 102.496,182.896 " />
<polygon stroke="black" stroke-width="1" fill="rgb(204, 204, 204)" fill-opacity="0.25" points="108.372,174.514 117.784,162.139 106.772,165.230 " />
<polygon stroke="black" stroke-width="1" fill="rgb(204, 204, 204)" fill-opacity="0.25" points="91.656,183.894 99.742,172.953 90.384,165.502 " />
<polygon stroke="black" stroke-width="1" fill="rgb(204, 204, 204)" fill-opacity="0.25" points="99.742,172.953 106.772,165.230 98.865,162.820 " />
<polygon stroke="black" stroke-width="1" fill="rgb(204, 204, 204)" fill-opacity="0.25" points="103.377,152.342 90.426,139.208 98.865,162.820 " />
<polygon stroke="black" stroke-width="1" fill="rgb(204, 204, 204)" fill-opacity="0.25" points="140.262,214.750 108.372,174.514 102.496,182.896 " />
<polygon stroke="black" stroke-width="1" fill="rgb(204, 204, 204)" fill-opacity="0.25" points="140.262,214.750 102.496,182.896 104.198,209.388 " />
<polygon stroke="black" stroke-width="1" fill="rgb(204, 204, 204)" fill-opacity="0.25" points="117.784,162.139 143.230,136.823 118.468,139.068 " />
<polygon stroke="black" stroke-width="1" fill="rgb(204, 204, 204)" fill-opacity="0.25" points="117.784,162.139 118.468,139.068 111.452,152.472 " />
<polygon stroke="black" stroke-width="1" fill="rgb(204, 204, 204)" fill-opacity="0.25" points="101.914,119.134 79.678,95.155 90.426,139.208 " />
<polygon stroke="black" stroke-width="1" fill="rgb(204, 204, 204)" fill-opacity="0.25" points="90.426,139.208 79.678,95.155 72.801,114.621 " />
<polygon stroke="black" stroke-width="1" fill="rgb(204, 204, 204)" fill-opacity="0.25" points="90.426,139.208 72.801,114.621 72.733,151.436 " />
<polygon stroke="black" stroke-width="1" fill="rgb(204, 204, 204)" fill-opacity="0.25" points="80.246,179.926 90.384,165.502 72.733,151.436 " />
<polygon stroke="black" stroke-width="1" fill="rgb(204, 204, 204)" fill-opacity="0.25" points="104.198,209.388 91.417,198.478 71.698,236.053 " />
<polygon stroke="black" stroke-width="1" fill="rgb(204, 204, 204)" fill-opacity="0.25" points="19.608,166.627 52.335,162.886 8.903,130.256 " />
<polygon stroke="black" stroke-width="1" fill="rgb(204, 204, 204)" fill-opacity="0.25" points="52.335,162.886 44.829,127.124 8.903,130.256 " />
<polygon stroke="black" stroke-width="1" fill="rgb(204, 204, 204)" fill-opacity="0.25" points="19.608,166.627 61.842,195.941 52.335,162.886 " />
<polygon stroke="black" stroke-width="1" fill="rgb(204, 204, 204)" fill-opacity="0.25" points="44.829,127.124 42.055,97.614 3.528,101.044 " />
<polygon stroke="black" stroke-width="1" fill="rgb(204, 204, 204)" fill-opacity="0.25" points="3.528,101.044 42.055,97.614 13.409,82.034 " />
<polygon stroke="black" stroke-width="1" fill="rgb(204, 204, 204)" fill-opacity="0.25" points="313.526,156.931 335.180,130.256 305.051,127.773 " />
<polygon stroke="black" stroke-width="1" fill="rgb(204, 204, 204)" fill-opacity="0.25" points="313.526,156.931 305.051,127.773 287.018,154.314 " />
<polygon stroke="black" stroke-width="1" fill="rgb(204, 204, 204)" fill-opacity="0.25" points="72.801,114.621 42.482,74.707 42.055,97.614 " />
<polygon stroke="black" stroke-width="1" fill="rgb(204, 204, 204)" fill-opacity="0.25" points="339.686,82.034 368.759,74.707 319.360,56.732 " />
<polygon stroke="black" stroke-width="1" fill="rgb(204, 204, 204)" fill-opacity="0.25" points="300.247,100.366 306.603,80.198 279.507,96.333 " />
<polygon stroke="black" stroke-width="1" fill="rgb(204, 204, 204)" fill-opacity="0.25" points="276.381,132.930 300.247,100.366 279.507,96.333 " />
<polygon stroke="black" stroke-width="1" fill="rgb(204, 204, 204)" fill-opacity="0.25" points="287.018,154.314 305.051,127.773 276.381,132.930 " />
<polygon stroke="black" stroke-width="1" fill="rgb(204, 204, 204)" fill-opacity="0.25" points="289.065,177.086 313.526,156.931 287.018,154.314 " />
<polygon stroke="black" stroke-width="1" fill="rgb(204, 204, 204)" fill-opacity="0.25" points="282.734,212.008 262.701,212.944 397.975,236.053 " />
<polygon stroke="black" stroke-width="1" fill="rgb(204, 204, 204)" fill-opacity="0.25" points="274.328,181.002 264.628,165.764 258.616,192.762 " />
<polygon stroke="black" stroke-width="1" fill="rgb(204, 204, 204)" fill-opacity="0.25" points="258.616,192.762 255.173,169.482 251.319,185.100 " />
<polygon stroke="black" stroke-width="1" fill="rgb(204, 204, 204)" fill-opacity="0.25" points="255.173,169.482 247.267,170.649 251.319,185.100 " />
<polygon stroke="black" stroke-width="1" fill="rgb(204, 204, 204)" fill-opacity="0.25" points="258.616,192.762 251.319,185.100 231.145,216.281 " />
<polygon stroke="black" stroke-width="1" fill="rgb(204, 204, 204)" fill-opacity="0.25" points="262.701,212.944 231.145,216.281 172.146,243.612 " />
<polygon stroke="black" stroke-width="1" fill="rgb(204, 204, 204)" fill-opacity="0.25" points="397.975,236.053 262.701,212.944 172.146,243.612 " />
<polygon stroke="black" stroke-width="1" fill="rgb(204, 204, 204)" fill-opacity="0.25" points="321.675,196.559 397.975,236.053 388.119,195.941 " />
<polygon stroke="black" stroke-width="1" fill="rgb(204, 204, 204)" fill-opacity="0.25" points="321.675,196.559 282.734,212.008 397.975,236.053 " />
<polygon stroke="black" stroke-width="1" fill="rgb(204, 204, 204)" fill-opacity="0.25" points="289.065,177.086 274.328,181.002 282.734,212.008 " />
<polygon stroke="black" stroke-width="1" fill="rgb(204, 204, 204)" fill-opacity="0.25" points="247.267,170.649 241.513,153.808 228.342,173.056 " />
<polygon stroke="black" stroke-width="1" fill="rgb(204, 204, 204)" fill-opacity="0.25" points="119.578,178.195 167.703,189.795 117.784,162.139 " />
<polygon stroke="black" stroke-width="1" fill="rgb(204, 204, 204)" fill-opacity="0.25" points="228.342,173.056 214.243,187.527 226.515,192.501 " />
<polygon stroke="black" stroke-width="1" fill="rgb(204, 204, 204)" fill-opacity="0.25" points="232.337,131.136 189.993,155.587 228.342,173.056 " />
<polygon stroke="black" stroke-width="1" fill="rgb(204, 204, 204)" fill-opacity="0.25" points="189.993,155.587 143.230,136.823 167.703,189.795 " />
<polygon stroke="black" stroke-width="1" fill="rgb(204, 204, 204)" fill-opacity="0.25" points="200.645,197.095 140.262,214.750 212.313,211.323 " />
<polygon stroke="black" stroke-width="1" fill="rgb(204, 204, 204)" fill-opacity="0.25" points="212.313,211.323 140.262,214.750 172.146,243.612 " />
<polygon stroke="black" stroke-width="1" fill="rgb(204, 204, 204)" fill-opacity="0.25" points="251.319,185.100 247.267,170.649 226.515,192.501 " />
<polygon stroke="black" stroke-width="1" fill="rgb(204, 204, 204)" fill-opacity="0.25" points="258.572,129.810 251.107,102.458 247.668,139.862 " />
<polygon stroke="black" stroke-width="1" fill="rgb(204, 204, 204)" fill-opacity="0.25" points="247.267,170.649 254.762,151.606 241.513,153.808 " />
<polygon stroke="black" stroke-width="1" fill="rgb(204, 204, 204)" fill-opacity="0.25" points="255.173,169.482 254.762,151.606 247.267,170.649 " />
<polygon stroke="black" stroke-width="1" fill="rgb(204, 204, 204)" fill-opacity="0.25" points="254.762,151.606 258.572,129.810 247.668,139.862 " />
<polygon stroke="black" stroke-width="1" fill="rgb(204, 204, 204)" fill-opacity="0.25" points="274.328,181.002 287.018,154.314 264.628,165.764 " />
<polygon stroke="black" stroke-width="1" fill="rgb(204, 204, 204)" fill-opacity="0.25" points="264.628,165.764 276.381,132.930 254.762,151.606 " />
<polygon stroke="black" stroke-width="1" fill="rgb(204, 204, 204)" fill-opacity="0.25" points="276.381,132.930 279.507,96.333 258.572,129.810 " />
<polygon stroke="black" stroke-width="1" fill="rgb(204, 204, 204)" fill-opacity="0.25" points="258.572,129.810 263.186,89.237 251.107,102.458 " />
<polygon stroke="black" stroke-width="1" fill="rgb(204, 204, 204)" fill-opacity="0.25" points="247.668,139.862 251.107,102.458 238.040,104.027 " />
<polygon stroke="black" stroke-width="1" fill="rgb(204, 204, 204)" fill-opacity="0.25" points="264.628,165.764 255.173,169.482 258.616,192.762 " />
<polygon stroke="black" stroke-width="1" fill="rgb(204, 204, 204)" fill-opacity="0.25" points="247.935,68.865 263.186,89.237 283.890,68.090 " />
<polygon stroke="black" stroke-width="1" fill="rgb(204, 204, 204)" fill-opacity="0.25" points="79.678,95.155 101.914,119.134 92.651,65.142 " />
<polygon stroke="black" stroke-width="1" fill="rgb(204, 204, 204)" fill-opacity="0.25" points="91.417,198.478 104.198,209.388 102.496,182.896 " />
<polygon stroke="black" stroke-width="1" fill="rgb(204, 204, 204)" fill-opacity="0.25" points="90.384,165.502 99.742,172.953 98.865,162.820 " />
<polygon stroke="black" stroke-width="1" fill="rgb(204, 204, 204)" fill-opacity="0.25" points="91.417,198.478 91.656,183.894 80.246,179.926 " />
<polygon stroke="black" stroke-width="1" fill="rgb(204, 204, 204)" fill-opacity="0.25" points="91.417,198.478 80.246,179.926 61.842,195.941 " />
<polygon stroke="black" stroke-width="1" fill="rgb(204, 204, 204)" fill-opacity="0.25" points="72.801,114.621 42.055,97.614 44.829,127.124 " />
<polygon stroke="black" stroke-width="1" fill="rgb(204, 204, 204)" fill-opacity="0.25" points="72.801,114.621 44.829,127.124 72.733,151.436 " />
<polygon stroke="black" stroke-width="1" fill="rgb(204, 204, 204)" fill-opacity="0.25" points="335.180,130.256 313.526,156.931 345.885,166.627 " />
<polygon stroke="black" stroke-width="1" fill="rgb(204, 204, 204)" fill-opacity="0.25" points="274.328,181.002 258.616,192.762 262.701,212.944 " />
<polygon stroke="black" stroke-width="1" fill="rgb(204, 204, 204)" fill-opacity="0.25" points="274.328,181.002 262.701,212.944 282.734,212.008 " />
<polygon stroke="black" stroke-width="1" fill="rgb(204, 204, 204)" fill-opacity="0.25" points="287.018,154.314 274.328,181.002 289.065,177.086 " />
<polygon stroke="black" stroke-width="1" fill="rgb(204, 204, 204)" fill-opacity="0.25" points="212.313,211.323 226.515,192.501 214.243,187.527 " />
<polygon stroke="black" stroke-width="1" fill="rgb(204, 204, 204)" fill-opacity="0.25" points="221.410,68.378 238.040,104.027 247.935,68.865 " />
<polygon stroke="black" stroke-width="1" fill="rgb(204, 204, 204)" fill-opacity="0.25" points="119.578,178.195 140.262,214.750 167.703,189.795 " />

</svg>
